HIERARCHY
ROOT Hips
{
	OFFSET -0.179506 -22.333345 2.821913
	CHANNELS 6 Xposition Yposition Zposition Zrotation Yrotation Xrotation 
	JOINT LeftUpLeg
	{
		OFFSET 6.951974 -9.140623 -0.681533
		CHANNELS 3 Zrotation Yrotation Xrotation
		JOINT LeftLeg
		{
			OFFSET 3.427654 -37.519855 -0.449580
			CHANNELS 3 Zrotation Yrotation Xrotation
			JOINT LeftFoot
			{
				OFFSET -1.359570 -39.796059 -4.369333
				CHANNELS 3 Zrotation Yrotation Xrotation
				JOINT LeftToe
				{
					OFFSET 2.635814 -5.579078 11.928840
					CHANNELS 3 Zrotation Yrotation Xrotation
					End Site
					{
						OFFSET 0.000000 0.000000 0.000000
					}
				}
			}
		}
	}
	JOINT RightUpLeg
	{
		OFFSET -6.767048 -9.052170 -0.431982
		CHANNELS 3 Zrotation Yrotation Xrotation
		JOINT RightLeg
		{
			OFFSET -3.829005 -38.256897 -0.885003
			CHANNELS 3 Zrotation Yrotation Xrotation
			JOINT RightFoot
			{
				OFFSET 1.577377 -39.841461 -4.231180
				CHANNELS 3 Zrotation Yrotation Xrotation
				JOINT RightToe
				{
					OFFSET -2.537174 -4.814398 12.334795
					CHANNELS 3 Zrotation Yrotation Xrotation
					End Site
					{
						OFFSET 0.000000 0.000000 0.000000
					}
				}
			}
		}
	}
	JOINT Spine
	{
		OFFSET -0.253288 10.896323 -2.669631
		CHANNELS 3 Zrotation Yrotation Xrotation
		JOINT Spine1
		{
			OFFSET 0.548704 13.518043 0.109247
			CHANNELS 3 Zrotation Yrotation Xrotation
			JOINT Spine2
			{
				OFFSET 0.145701 5.292222 2.542457
				CHANNELS 3 Zrotation Yrotation Xrotation
				JOINT Neck
				{
					OFFSET -0.277840 21.387037 -4.285703
					CHANNELS 3 Zrotation Yrotation Xrotation
					JOINT Head
					{
						OFFSET 0.515184 6.496960 5.134897
						CHANNELS 3 Zrotation Yrotation Xrotation
						End Site
						{
							OFFSET 0.000000 0.000000 0.000000
						}
					}
				}
				JOINT LeftShoulder
				{
					OFFSET 7.884473 12.174932 -3.408961
					CHANNELS 3 Zrotation Yrotation Xrotation
					JOINT LeftArm
					{
						OFFSET 9.097692 3.046888 -0.886815
						CHANNELS 3 Zrotation Yrotation Xrotation
						JOINT LeftForeArm
						{
							OFFSET 25.961220 -1.277207 -2.745643
							CHANNELS 3 Zrotation Yrotation Xrotation
							JOINT LeftHand
							{
								OFFSET 24.923361 0.898606 -0.117091
								CHANNELS 3 Zrotation Yrotation Xrotation
								End Site
								{
									OFFSET 0.000000 0.000000 0.000000
								}
							}
						}
					}
				}
				JOINT RightShoulder
				{
					OFFSET -8.175920 11.883285 -3.861528
					CHANNELS 3 Zrotation Yrotation Xrotation
					JOINT RightArm
					{
						OFFSET -9.601238 3.255117 -0.914307
						CHANNELS 3 Zrotation Yrotation Xrotation
						JOINT RightForeArm
						{
							OFFSET -25.374195 -1.332924 -2.140099
							CHANNELS 3 Zrotation Yrotation Xrotation
							JOINT RightHand
							{
								OFFSET -25.529810 0.777228 -0.555919
								CHANNELS 3 Zrotation Yrotation Xrotation
								End Site
								{
									OFFSET 0.000000 0.000000 0.000000
								}
							}
						}
					}
				}
			}
		}
	}
}
MOTION
Frames: 8
Frame Time: 0.033333
-0.179506 90.165726 2.821913 -20.424751 -80.384459 -66.952707 1.931223 -1.825560 -6.792303 -0.766926 -1.262630 15.156847 -11.345917 7.729697 23.377193 1.210528 1.241046 -0.320240 0.275707 -6.195562 0.552392 -0.916076 -5.897181 8.720381 9.710339 -5.463275 17.914912 3.585272 -3.875284 1.447427 -1.926944 0.850681 11.414237 -0.358296 -2.703475 -3.360148 2.803776 -2.111247 1.452773 -6.336964 -7.310126 -1.234328 5.435201 2.884926 -0.277580 -11.056502 0.082282 5.987538 -48.713509 -3.987825 14.274535 -15.756665 -33.646834 29.047655 -8.833663 -10.398087 -7.573528 2.961416 3.699232 0.202511 62.270917 0.882420 20.747348 7.885775 27.785789 14.486316 8.544854 1.456224 -2.099377 
-0.256711 90.203171 2.670424 -19.680073 -80.226549 -67.422929 1.933320 -1.826789 -7.687612 -0.808635 -0.749026 16.378555 -11.496354 7.385697 23.246642 0.951119 1.194058 -0.314807 0.333138 -6.322858 1.035123 -0.970663 -5.764434 7.404954 9.622512 -5.512948 17.916959 3.539624 -3.904307 1.511334 -1.969888 0.992955 11.395062 -0.477168 -2.652535 -3.511574 2.863452 -2.072485 1.485931 -6.436536 -7.558697 -1.428916 5.493135 2.891715 -0.245889 -10.990230 -0.086818 5.938917 -48.666282 -3.967846 14.238059 -15.652497 -33.391386 28.491043 -9.378609 -10.406469 -7.852578 2.840715 3.774957 0.318851 62.458624 0.779920 20.895390 8.014843 27.954629 14.448701 8.942338 1.598851 -2.560460 
-0.233645 90.239090 2.643269 -18.564772 -80.257851 -68.877719 1.925772 -1.995980 -8.099914 -0.891224 -0.598393 17.813596 -11.480541 7.491052 23.635574 0.926651 1.200733 -0.334885 0.267317 -6.454528 1.288424 -1.023295 -6.006200 7.538000 9.803031 -5.464844 18.033308 3.557611 -3.854477 1.524385 -1.903129 1.146696 11.631948 -0.556710 -2.600987 -3.457362 2.860460 -1.980324 1.428026 -6.502405 -7.789044 -1.463797 5.517844 2.786900 -0.343238 -11.034550 -0.248119 5.963932 -48.668484 -4.050187 14.227214 -15.525300 -33.150786 28.064633 -9.597819 -10.279131 -7.803902 2.900479 3.814341 0.461772 62.367215 0.774275 20.827497 8.087825 28.118264 14.036076 9.166053 1.394006 -3.036525 
-0.222007 90.270691 2.940935 -18.128906 -80.655916 -68.932387 2.175307 -2.020588 -8.880264 -1.062672 -0.504498 18.658955 -11.226072 7.375037 23.300189 0.863193 1.156943 -0.360828 0.365712 -6.425836 1.554773 -0.798901 -5.765616 6.471639 9.713282 -5.532327 18.122465 3.561803 -3.829146 1.557733 -1.921527 1.290128 11.543288 -0.556801 -2.626351 -3.395374 2.860966 -1.957818 1.349634 -6.606469 -8.038281 -1.455643 5.576754 2.798406 -0.503421 -11.291453 -0.331581 6.044005 -48.717441 -3.929157 14.236137 -15.334811 -33.494955 27.720460 -9.483402 -10.147163 -7.658037 2.881392 3.846245 0.553505 62.234092 0.753898 20.843693 7.765040 28.199416 13.663651 8.956192 1.484637 -3.544326 
-0.370691 90.296440 2.731517 -16.901586 -80.528226 -70.005586 2.171463 -2.308087 -10.006654 -1.122972 -0.333193 20.556940 -11.264827 7.145394 23.108395 0.788054 1.080804 -0.493132 0.470727 -6.370622 1.673687 -0.962515 -5.673806 6.232649 9.300347 -5.612163 17.904050 3.568810 -3.885540 1.463048 -1.913024 1.441500 11.698539 -0.584167 -2.720146 -3.571475 2.916733 -2.008275 1.371365 -6.813341 -8.162412 -1.326601 5.609158 3.055323 -0.531588 -11.176042 -0.331356 6.142234 -48.788916 -3.962604 14.189388 -14.954347 -33.162348 27.474941 -9.178499 -9.892782 -7.392353 2.697579 3.880345 0.645851 62.323467 0.794386 20.894010 8.168371 28.757682 13.892890 8.664405 1.608208 -3.852394 
-0.565659 90.320389 2.474374 -15.169176 -80.409252 -71.669242 2.335909 -2.372159 -11.276454 -1.300172 0.162472 22.901213 -11.486814 6.843165 22.959830 0.716669 0.946912 -0.661193 0.525397 -6.448110 1.968586 -1.060821 -5.414934 5.887859 8.992103 -5.611886 17.796714 3.488785 -3.914123 1.483033 -1.889958 1.589205 11.785599 -0.564793 -2.794979 -3.543265 2.910101 -2.019261 1.239987 -6.856798 -8.187382 -1.159892 5.677294 3.319689 -0.603588 -11.182251 -0.314005 6.268880 -48.700216 -3.911338 14.161618 -14.456701 -32.985891 26.787370 -9.268130 -9.659002 -7.359539 2.690639 3.858651 0.839059 62.376010 0.831906 20.826227 8.327317 29.506916 13.828868 8.443773 1.692810 -4.114465 
-0.825474 90.342430 1.989573 -13.747768 -79.937277 -72.715008 2.371287 -2.518643 -12.734842 -1.508694 0.505025 24.900981 -11.871474 6.536524 22.958296 0.670641 0.843120 -0.796029 0.607652 -6.469658 2.154623 -1.283875 -5.175698 5.199655 8.646089 -5.769997 17.733036 3.406820 -3.911690 1.471890 -1.898805 1.763945 12.010546 -0.686058 -2.800910 -3.758635 2.974347 -2.021658 1.246430 -6.946735 -8.492243 -1.200131 5.890744 3.770360 -0.558297 -11.049360 -0.263995 6.196596 -48.523920 -3.823117 14.133449 -13.898157 -32.818998 26.170540 -9.118697 -9.336779 -7.007498 2.646731 3.756513 0.940630 62.628445 0.839946 20.942505 8.635524 30.265939 13.806837 8.453615 1.893304 -4.182788 
-0.983667 90.360313 1.814394 -12.450051 -79.860879 -73.874486 2.548928 -2.757223 -14.127269 -1.577289 0.983575 27.172789 -11.991410 6.448985 23.294887 0.598016 0.702923 -0.917300 0.741785 -6.447721 2.377747 -1.373558 -5.316555 4.808554 8.600508 -5.631250 17.872515 3.375754 -3.955891 1.422043 -1.775098 1.943440 12.147457 -0.716331 -2.792796 -3.885197 2.980214 -1.945076 1.077131 -7.075706 -8.594485 -1.138425 5.942673 3.894386 -0.566080 -11.073691 -0.222086 6.239513 -48.387131 -3.655452 14.209321 -13.703213 -33.000823 25.744057 -9.030754 -9.323077 -6.584731 2.652110 3.586592 1.152146 62.615624 0.779327 21.025522 8.689475 30.905616 13.746987 8.348320 1.932919 -4.434936 
